HIERARCHY
ROOT Hips
{
	OFFSET -0.001795 -0.223333 0.028219
	CHANNELS 6 Xposition Yposition Zposition Zrotation Yrotation Xrotation 
	JOINT LeftUpLeg
	{
		OFFSET 0.069520 -0.091406 -0.006815
		CHANNELS 3 Zrotation Yrotation Xrotation
		JOINT LeftLeg
		{
			OFFSET 0.034277 -0.375199 -0.004496
			CHANNELS 3 Zrotation Yrotation Xrotation
			JOINT LeftFoot
			{
				OFFSET -0.013596 -0.397961 -0.043693
				CHANNELS 3 Zrotation Yrotation Xrotation
				JOINT LeftToe
				{
					OFFSET 0.026358 -0.055791 0.119288
					CHANNELS 3 Zrotation Yrotation Xrotation
					End Site
					{
						OFFSET 0.000000 0.000000 0.000000
					}
				}
			}
		}
	}
	JOINT RightUpLeg
	{
		OFFSET -0.067670 -0.090522 -0.004320
		CHANNELS 3 Zrotation Yrotation Xrotation
		JOINT RightLeg
		{
			OFFSET -0.038290 -0.382569 -0.008850
			CHANNELS 3 Zrotation Yrotation Xrotation
			JOINT RightFoot
			{
				OFFSET 0.015774 -0.398415 -0.042312
				CHANNELS 3 Zrotation Yrotation Xrotation
				JOINT RightToe
				{
					OFFSET -0.025372 -0.048144 0.123348
					CHANNELS 3 Zrotation Yrotation Xrotation
					End Site
					{
						OFFSET 0.000000 0.000000 0.000000
					}
				}
			}
		}
	}
	JOINT Spine
	{
		OFFSET -0.002533 0.108963 -0.026696
		CHANNELS 3 Zrotation Yrotation Xrotation
		JOINT Spine1
		{
			OFFSET 0.005487 0.135180 0.001092
			CHANNELS 3 Zrotation Yrotation Xrotation
			JOINT Spine2
			{
				OFFSET 0.001457 0.052922 0.025425
				CHANNELS 3 Zrotation Yrotation Xrotation
				JOINT Neck
				{
					OFFSET -0.002778 0.213870 -0.042857
					CHANNELS 3 Zrotation Yrotation Xrotation
					JOINT Head
					{
						OFFSET 0.005152 0.064970 0.051349
						CHANNELS 3 Zrotation Yrotation Xrotation
						End Site
						{
							OFFSET 0.000000 0.000000 0.000000
						}
					}
				}
				JOINT LeftShoulder
				{
					OFFSET 0.078845 0.121749 -0.034090
					CHANNELS 3 Zrotation Yrotation Xrotation
					JOINT LeftArm
					{
						OFFSET 0.090977 0.030469 -0.008868
						CHANNELS 3 Zrotation Yrotation Xrotation
						JOINT LeftForeArm
						{
							OFFSET 0.259612 -0.012772 -0.027456
							CHANNELS 3 Zrotation Yrotation Xrotation
							JOINT LeftHand
							{
								OFFSET 0.249234 0.008986 -0.001171
								CHANNELS 3 Zrotation Yrotation Xrotation
								End Site
								{
									OFFSET 0.000000 0.000000 0.000000
								}
							}
						}
					}
				}
				JOINT RightShoulder
				{
					OFFSET -0.081759 0.118833 -0.038615
					CHANNELS 3 Zrotation Yrotation Xrotation
					JOINT RightArm
					{
						OFFSET -0.096012 0.032551 -0.009143
						CHANNELS 3 Zrotation Yrotation Xrotation
						JOINT RightForeArm
						{
							OFFSET -0.253742 -0.013329 -0.021401
							CHANNELS 3 Zrotation Yrotation Xrotation
							JOINT RightHand
							{
								OFFSET -0.255298 0.007772 -0.005559
								CHANNELS 3 Zrotation Yrotation Xrotation
								End Site
								{
									OFFSET 0.000000 0.000000 0.000000
								}
							}
						}
					}
				}
			}
		}
	}
}
MOTION
Frames: 12
Frame Time: 0.050000
0.060675 0.949960 1.166542 -1.669910 -6.237174 1.552674 1.990624 0.050094 0.737814 2.987426 -0.443007 1.557931 -1.320579 0.268486 7.880036 0.000000 0.000000 0.000000 5.828996 -0.793203 4.129021 -5.900056 0.879330 3.145117 0.126565 -1.746481 3.524398 0.000000 0.000000 0.000000 3.570188 -0.070441 0.378409 -2.183266 1.134839 3.893734 -5.038403 5.190217 -4.489831 7.527515 -3.842144 -10.139703 0.000000 0.000000 0.000000 -24.490052 0.029378 -3.954725 -41.231343 -0.102025 -3.746248 -36.571305 -44.181665 16.168818 0.000000 0.000000 0.000000 19.374606 -5.043538 -3.964192 49.547783 -7.286805 -6.932457 54.249425 42.710901 24.062355 0.000000 0.000000 0.000000 
0.059323 0.948044 1.169181 -1.800911 -5.773329 1.522659 2.147540 -0.122398 -1.505119 3.126538 -0.692569 5.816753 -1.178939 0.167697 6.736494 0.000000 0.000000 0.000000 6.254391 -0.899305 4.667892 -5.793808 0.927159 3.748989 -0.628664 -2.329327 1.355093 0.000000 0.000000 0.000000 4.037810 -0.129795 1.068783 -2.746259 1.430741 4.204838 -4.514997 4.889630 -4.159646 7.486273 -3.695272 -10.917994 0.000000 0.000000 0.000000 -24.148723 -0.303358 -3.624759 -42.009572 -1.473265 -3.428252 -36.699147 -44.729609 16.481888 0.000000 0.000000 0.000000 18.644521 -5.177450 -3.989001 49.409388 -6.475869 -6.603208 55.811888 43.542501 25.321929 0.000000 0.000000 0.000000 
0.058857 0.945215 1.173640 -1.989342 -5.894476 1.102800 2.339843 -0.354556 -4.891624 3.018078 -1.032657 13.465819 -0.843625 0.309424 5.359973 0.000000 0.000000 0.000000 6.511153 -1.121365 6.105578 -5.658507 0.934060 4.006553 -1.175329 -2.206700 -1.304009 0.000000 0.000000 0.000000 4.402693 -0.236908 2.411149 -2.470651 1.292822 4.415349 -4.849404 5.559756 -3.768569 7.007752 -3.529000 -9.990567 0.000000 0.000000 0.000000 -23.296718 -0.874007 -3.356840 -43.115133 -2.130126 -3.303869 -36.796140 -44.130966 16.139644 0.000000 0.000000 0.000000 18.379075 -4.650378 -3.510815 49.361094 -5.672557 -6.349640 56.246295 45.619442 27.145560 0.000000 0.000000 0.000000 
0.060299 0.941941 1.180212 -2.611427 -6.236828 2.045452 3.595546 -0.599357 -10.447679 1.797696 -0.959525 22.519425 -1.037899 0.013616 5.555348 0.000000 0.000000 0.000000 6.984214 -1.047261 5.240908 -5.446887 1.072348 5.770126 -1.593040 -1.872208 -3.701435 0.000000 0.000000 0.000000 5.198337 -0.331840 3.078011 -2.658961 1.401264 4.490809 -5.022487 6.669791 -3.829282 7.000800 -3.054922 -12.251218 0.000000 0.000000 0.000000 -23.389392 -0.553569 -3.856381 -43.287354 -2.404091 -3.132016 -37.473154 -44.090456 16.221041 0.000000 0.000000 0.000000 18.496461 -4.474319 -3.210376 48.959869 -4.614787 -5.913377 56.744376 46.929412 28.600855 0.000000 0.000000 0.000000 
0.063855 0.938380 1.191509 -2.156971 -6.238745 1.930068 2.965650 -0.928533 -15.761546 1.316045 -0.912195 31.248924 -1.645697 1.386778 12.399283 0.000000 0.000000 0.000000 6.443391 -1.126728 6.088655 -5.458426 1.186063 6.894859 -2.366644 -2.570979 -6.079640 0.000000 0.000000 0.000000 5.116295 -0.463722 4.732840 -2.859660 1.497461 4.226132 -4.597309 7.411720 -3.255528 6.350519 -2.313915 -14.063295 0.000000 0.000000 0.000000 -24.146673 -0.552988 -4.147598 -42.976670 -2.296189 -3.132358 -39.392356 -44.869406 17.329076 0.000000 0.000000 0.000000 17.993381 -3.848252 -2.683172 49.369112 -2.355941 -5.162053 57.716211 49.646990 31.286582 0.000000 0.000000 0.000000 
0.069056 0.935289 1.209065 -2.307185 -6.010097 2.368907 2.826117 -1.243119 -22.014035 0.535601 -0.640299 37.474640 -0.734994 5.892665 23.148117 0.000000 0.000000 0.000000 6.546496 -1.292776 7.107384 -5.389062 1.185168 7.011689 -3.088666 -4.042519 -7.192613 0.000000 0.000000 0.000000 5.158198 -0.600294 6.279795 -2.371624 1.180905 2.008270 -4.699792 9.384903 -1.322842 6.511598 -2.048439 -15.436123 0.000000 0.000000 0.000000 -24.159264 -0.006008 -4.981488 -43.170574 -0.559740 -3.750213 -43.700273 -45.234100 19.134383 0.000000 0.000000 0.000000 17.984897 -3.382212 -1.955591 49.991902 -0.155490 -4.601062 61.574082 54.526953 38.153996 0.000000 0.000000 0.000000 
0.075485 0.930686 1.233509 -2.161602 -6.681155 3.169726 2.862046 -1.417950 -27.960387 0.323450 -0.449337 38.697573 0.554361 7.313626 22.159102 0.000000 0.000000 0.000000 5.670216 -1.351124 8.095449 -5.345590 1.117877 6.432468 -3.244456 -4.062008 -7.726893 0.000000 0.000000 0.000000 4.753999 -0.623833 6.815893 -2.680381 1.336176 1.881717 -4.816604 11.895203 -1.187964 6.764647 -1.963451 -15.687030 0.000000 0.000000 0.000000 -22.972739 0.158517 -5.437282 -42.141908 1.358496 -4.160846 -49.711975 -46.480199 22.111391 0.000000 0.000000 0.000000 18.283419 -2.897859 -1.189787 50.622097 2.934613 -3.539369 65.204619 59.449103 45.693791 0.000000 0.000000 0.000000 
0.083243 0.924527 1.265226 -1.952043 -7.289856 3.717161 3.700908 -1.254883 -33.113368 0.523601 -0.488942 38.901684 1.220213 5.774468 11.265480 0.000000 0.000000 0.000000 4.716369 -1.429124 9.545048 -5.711326 1.187682 6.570988 -3.411839 -3.949843 -8.528469 0.000000 0.000000 0.000000 3.811384 -0.654691 8.283041 -3.351870 1.658865 1.466073 -4.149654 14.815855 -1.519872 8.009240 -2.206076 -17.092817 0.000000 0.000000 0.000000 -21.263593 0.421800 -5.802945 -42.233453 4.274329 -5.057484 -56.554462 -47.958479 25.726579 0.000000 0.000000 0.000000 17.408883 -3.919702 -1.244430 51.408176 5.920995 -2.293012 78.804343 62.749690 61.025749 0.000000 0.000000 0.000000 
0.092762 0.916242 1.305544 -1.645393 -7.584545 4.520105 5.094621 -0.797931 -37.030112 0.497585 -0.466023 38.866621 1.438221 4.382397 4.507400 0.000000 0.000000 0.000000 3.169446 -1.457208 11.580892 -5.609295 1.161641 6.511593 -3.488444 -3.549568 -9.427643 0.000000 0.000000 0.000000 2.521837 -0.613630 9.653942 -3.450414 1.642619 -0.201883 -3.933282 17.138915 0.229184 8.939744 -2.190442 -18.940015 0.000000 0.000000 0.000000 -19.673953 1.110877 -6.163522 -41.854470 6.368527 -5.806237 -63.558772 -49.921253 30.263855 0.000000 0.000000 0.000000 16.921897 -4.137699 -0.910741 51.826152 9.885969 -0.775073 93.230255 66.575873 80.063944 0.000000 0.000000 0.000000 
0.104862 0.906067 1.356282 -1.445831 -8.407930 5.346728 6.407267 -0.186516 -39.272533 -1.067430 0.469176 40.682127 0.806878 3.265995 4.840282 0.000000 0.000000 0.000000 1.456502 -1.446029 14.592870 -6.603274 1.322963 6.575612 -1.942363 0.613777 -8.378354 0.000000 0.000000 0.000000 1.268967 -0.528289 11.056024 -4.721012 2.133390 -2.409886 -2.434008 20.339696 2.549832 10.594752 -2.246493 -22.068049 0.000000 0.000000 0.000000 -19.326498 0.793468 -6.508251 -40.471191 7.127058 -5.752449 -67.251685 -50.371784 32.004294 0.000000 0.000000 0.000000 15.553672 -4.721120 -0.795141 52.829205 10.936719 -0.324558 109.367383 68.780329 101.710674 0.000000 0.000000 0.000000 
0.121383 0.895215 1.419799 -1.153433 -7.429850 7.126696 4.763632 -0.923087 -40.315197 -2.646626 1.238519 43.425111 2.366597 6.355596 5.187794 0.000000 0.000000 0.000000 0.606225 -1.302416 14.157084 -8.092367 2.205942 11.556974 -0.558013 1.967101 -4.999900 0.000000 0.000000 0.000000 0.343608 -0.373105 9.291617 -4.376913 2.077940 0.004444 -3.473817 20.161033 0.497803 10.505691 -1.950490 -22.742508 0.000000 0.000000 0.000000 -19.491001 0.742829 -6.747333 -39.414334 9.312865 -6.047550 -66.850604 -51.699999 32.647314 0.000000 0.000000 0.000000 15.364276 -4.927688 -0.839095 53.392271 10.694144 -0.145190 118.849245 68.403621 112.737144 0.000000 0.000000 0.000000 
0.141408 0.886686 1.492984 -0.440341 -5.334693 8.420006 2.547909 -1.980903 -38.296490 -4.260098 1.821553 45.032315 3.868921 8.324647 0.768581 0.000000 0.000000 0.000000 0.224420 -0.926246 9.735693 -8.380495 4.263239 25.641096 1.006369 0.274251 3.720619 0.000000 0.000000 0.000000 -0.421347 -0.307734 9.650830 -3.795226 1.702623 -2.791050 -3.136494 19.032658 2.746557 11.607984 -2.470383 -23.303992 0.000000 0.000000 0.000000 -22.942593 -0.085883 -7.501836 -35.721623 10.019620 -5.325834 -67.451902 -51.995786 33.787734 0.000000 0.000000 0.000000 14.024249 -6.555825 -1.791263 54.881518 7.870070 -1.308023 121.075081 65.196246 112.622432 0.000000 0.000000 0.000000 
